# xmcd CD database file
#
# Track frame offsets:
#	150
#	8676
#	44512
#	114532
#	155068
#	197700
#
# Disc length: 3319 seconds
#
# Revision: 0
# Processed by: cddbd v1.4PL0 Copyright (c) Steve Scherf et al.
# Submitted via: CDex 1.50beta10
#
DISCID=490cf506
DTITLE=Daniel Lentz - Wolf Mass
DYEAR=2000
DGENRE=New Age
TTITLE0=Preludium
TTITLE1=Wolf-KyrieBear-Gloria
TTITLE2=Bear - Gloria
TTITLE3=Eagle - Credo
TTITLE4=Cougar - Sanctus
TTITLE5=Man - Agnus Dei
EXTD=YEAR: 2000
EXTT0=
EXTT1=
EXTT2=
EXTT3=
EXTT4=
EXTT5=
PLAYORDER=
